# xmcd
#
# Track frame offsets:
#	150
#	14510
#	25967
#	40445
#	53905
#	73237
#	88672
#	101687
#	110910
#	130995
#	149447
#	161892
#	183462
#	196767
#	211837
#
# Disc length: 2988 seconds
#
# Revision: 0
# Processed by: cddbd v1.5PL3 Copyright (c) Steve Scherf et al.
# Submitted via: dBpowerAMP V4.0
#
DISCID=e50baa0f
DTITLE=Various Artist - The Soul of Blues CD3
DYEAR=1996
DGENRE=Soul
TTITLE0=Nat King Cole - Unforgetable
TTITLE1=Dinah Washington - What a difference a day makes
TTITLE2=The Driffters - Tie a yellow ribbon round the old Oak Tree
TTITLE3=Betty Everet - Jet it be me
TTITLE4=Ray Charles- I  can´t stop loving you
TTITLE5=Solomon Burke - Sweeter than sweetness
TTITLE6=The Bluebells - Life boat
TTITLE7=Shirley Bassey - Never, never, never
TTITLE8=Eddie Floyd - California girl
TTITLE9=Jerry Butler - He will break your heart
TTITLE10=Gladys Knight and The Pips - Every beat of my heart
TTITLE11=Harold Melvin and the Blue notes feat. Billy Paul - Me and Mrs Jones
TTITLE12=Clarence Carter - Patches
TTITLE13=Percy Sledge - Warm and tender love
TTITLE14=Aaron Neville - Tell it like it is
EXTD=
EXTT0=
EXTT1=
EXTT2=
EXTT3=
EXTT4=
EXTT5=
EXTT6=
EXTT7=
EXTT8=
EXTT9=
EXTT10=
EXTT11=
EXTT12=
EXTT13=
EXTT14=
PLAYORDER=
